<?xml version="1.0" standalone="no"?>
<!DOCTYPE svg PUBLIC "-//W3C//DTD SVG 20010904//EN"
 "http://www.w3.org/TR/2001/REC-SVG-20010904/DTD/svg10.dtd">
<svg version="1.0" xmlns="http://www.w3.org/2000/svg"
 width="2048.000000pt" height="427.000000pt" viewBox="0 0 2048.000000 427.000000"
 preserveAspectRatio="xMidYMid meet">

<g transform="translate(0.000000,427.000000) scale(0.100000,-0.100000)"
fill="#444444" stroke="none">
<path d="M2850 4217 c-170 -134 -675 -761 -1212 -1508 -371 -514 -940 -1367
-1335 -1999 -170 -272 -294 -482 -288 -488 5 -6 387 195 665 351 269 150 749
438 980 586 648 417 1336 978 1914 1560 l150 150 -53 113 c-95 201 -379 760
-452 888 -141 248 -249 390 -297 390 -9 0 -42 -19 -72 -43z"/>
<path d="M16793 3340 c-12 -5 -26 -18 -32 -29 -8 -14 -11 -355 -11 -1100 0
-1259 -15 -1121 124 -1121 80 0 86 2 105 27 12 14 29 51 37 82 9 31 18 59 21
64 2 4 31 -17 64 -47 281 -254 743 -206 969 102 277 377 199 945 -164 1181
-107 70 -252 111 -395 111 -75 0 -247 -26 -304 -46 -22 -8 -43 -14 -48 -14 -5
0 -9 167 -9 373 -1 401 0 396 -54 417 -33 12 -272 12 -303 0z m824 -1129 c93
-41 175 -150 203 -270 18 -75 8 -221 -19 -291 -45 -112 -129 -195 -226 -221
-22 -6 -78 -9 -125 -7 -98 6 -160 32 -224 93 -78 77 -76 68 -76 372 l0 273 41
20 c122 63 321 77 426 31z"/>
<path d="M20130 3338 c-52 -28 -50 14 -47 -1134 2 -1038 3 -1073 21 -1093 18
-20 29 -21 181 -21 144 0 164 2 178 18 16 17 17 108 17 1109 l0 1090 -21 19
c-18 16 -40 19 -163 22 -100 2 -148 -1 -166 -10z"/>
<path d="M6325 2603 c-219 -27 -371 -59 -400 -83 -20 -17 -19 -74 4 -184 12
-54 26 -96 38 -108 19 -19 21 -19 119 1 134 27 306 44 381 38 82 -6 129 -36
156 -96 21 -47 36 -181 21 -181 -5 0 -43 7 -84 16 -112 25 -313 22 -413 -5
-236 -63 -376 -229 -377 -446 0 -230 115 -403 316 -477 49 -18 80 -22 189 -22
116 0 139 3 210 28 84 29 158 70 213 117 18 16 36 29 41 29 5 0 16 -20 25 -44
10 -25 26 -56 37 -70 19 -24 26 -26 103 -26 131 0 120 -38 124 469 2 244 -2
476 -8 543 -28 319 -145 459 -415 498 -67 9 -217 11 -280 3z m270 -855 l40
-15 3 -120 3 -120 -43 -42 c-60 -61 -129 -93 -210 -99 -59 -4 -75 -1 -122 22
-62 31 -92 70 -105 140 -22 118 33 209 149 247 39 13 240 3 285 -13z"/>
<path d="M7676 2600 c-170 -31 -285 -109 -355 -240 -57 -106 -59 -261 -6 -373
51 -109 157 -189 371 -282 78 -34 162 -74 187 -88 86 -51 118 -122 81 -176
-53 -76 -265 -66 -436 20 -94 48 -103 43 -170 -86 -62 -120 -69 -154 -37 -186
33 -33 175 -95 264 -115 110 -26 343 -26 434 0 148 41 269 134 327 251 27 56
29 68 29 176 0 113 -1 116 -38 191 -63 129 -164 200 -465 329 -147 62 -192 98
-192 153 0 105 155 126 370 50 84 -30 106 -34 126 -25 27 12 124 196 124 234
0 53 -93 110 -238 148 -88 23 -297 33 -376 19z"/>
<path d="M9040 2599 c-213 -25 -342 -58 -366 -94 -15 -23 -15 -32 0 -117 22
-122 34 -156 57 -168 13 -8 46 -5 118 10 129 26 334 45 393 36 96 -15 151 -82
163 -202 4 -36 5 -67 2 -70 -2 -3 -42 2 -88 10 -139 25 -212 29 -310 16 -195
-25 -335 -102 -415 -225 -46 -72 -64 -143 -64 -249 0 -157 44 -269 141 -361
105 -100 241 -144 409 -132 140 10 254 54 359 137 29 23 55 39 59 36 3 -4 19
-34 36 -69 l31 -62 92 -3 c88 -3 93 -2 108 22 15 22 16 79 13 548 -4 501 -5
526 -26 602 -25 92 -67 169 -120 221 -102 102 -324 145 -592 114z m265 -840
c22 -5 52 -15 68 -21 l27 -10 0 -105 c0 -116 -9 -142 -63 -190 -113 -99 -282
-110 -368 -24 -109 109 -60 302 88 348 48 15 195 16 248 2z"/>
<path d="M10770 2594 c-36 -7 -84 -21 -107 -29 -56 -22 -151 -84 -197 -129
-20 -20 -40 -35 -45 -32 -5 3 -19 36 -32 72 -31 86 -53 104 -134 104 -80 0
-120 -14 -134 -48 -8 -19 -11 -226 -9 -714 3 -658 4 -687 22 -707 18 -20 29
-21 178 -21 91 0 168 4 179 10 18 10 19 26 19 456 l0 445 27 55 c36 73 115
145 183 167 59 19 156 22 213 6 53 -14 110 -69 138 -132 24 -52 24 -54 29
-515 5 -444 6 -464 24 -478 15 -11 57 -14 178 -14 146 0 160 2 179 21 20 20
20 26 17 512 -4 469 -5 496 -26 570 -49 178 -130 285 -264 352 -122 60 -296
80 -438 49z"/>
<path d="M12180 2591 c-133 -19 -248 -44 -282 -62 -37 -20 -40 -43 -17 -165
24 -130 42 -160 87 -150 204 45 431 66 502 46 66 -18 114 -72 128 -145 14 -66
16 -125 5 -125 -5 0 -42 6 -83 14 -286 54 -523 4 -667 -140 -80 -80 -115 -161
-121 -283 -5 -113 7 -183 48 -269 62 -132 191 -227 342 -252 86 -15 218 -8
298 16 72 21 178 77 228 120 22 19 43 34 47 34 3 0 17 -24 30 -53 36 -82 44
-87 139 -87 68 0 86 3 99 18 15 17 17 67 17 514 0 556 -5 616 -64 742 -55 118
-138 185 -273 222 -92 24 -305 27 -463 5z m325 -832 c22 -5 52 -15 68 -21 l27
-10 0 -116 0 -116 -53 -52 c-72 -69 -147 -98 -239 -91 -104 7 -164 54 -189
148 -30 112 26 215 137 254 46 17 192 19 249 4z"/>
<path d="M14675 2603 c-107 -23 -224 -88 -297 -167 l-47 -51 -11 30 c-55 151
-68 165 -161 165 -72 0 -113 -15 -128 -46 -8 -18 -11 -219 -11 -708 0 -676 0
-684 21 -710 l20 -26 163 0 c145 0 165 2 179 18 15 17 17 66 17 494 l0 475 23
34 c72 106 234 156 373 114 64 -19 88 -19 106 3 8 9 39 72 68 139 59 138 60
159 6 193 -61 37 -237 61 -321 43z"/>
<path d="M15702 2600 c-457 -83 -729 -565 -581 -1030 63 -196 211 -366 393
-451 109 -51 177 -64 331 -63 122 1 151 4 228 27 106 33 182 70 264 130 72 53
87 76 74 109 -19 46 -156 213 -178 216 -12 2 -49 -16 -88 -42 -100 -67 -149
-81 -285 -81 -103 0 -121 3 -170 26 -105 49 -196 171 -202 269 l-3 45 497 5
c273 3 498 7 501 10 34 38 38 224 8 342 -58 227 -240 411 -467 472 -72 20
-250 28 -322 16z m210 -336 c97 -28 175 -111 193 -207 l7 -37 -301 0 -301 0 0
23 c0 40 50 126 93 161 86 69 198 91 309 60z"/>
<path d="M19055 2603 c-225 -31 -429 -175 -542 -381 -206 -375 -81 -861 274
-1071 166 -97 389 -126 593 -75 142 35 370 173 370 224 0 10 -28 56 -62 102
-79 107 -108 138 -127 138 -9 0 -47 -20 -84 -45 -104 -67 -152 -80 -287 -80
-97 0 -122 4 -163 23 -105 48 -200 174 -209 277 l-3 40 498 5 c571 6 521 -4
532 105 14 123 -20 282 -85 404 -63 117 -194 236 -317 286 -112 45 -268 65
-388 48z m228 -351 c78 -35 141 -115 154 -198 l6 -34 -303 0 -302 0 6 31 c20
103 109 190 223 219 55 13 165 4 216 -18z"/>
<path d="M3885 2129 c-523 -433 -1176 -877 -1770 -1204 -437 -239 -1200 -592
-1748 -806 -100 -40 -186 -75 -190 -79 -19 -17 777 -25 2383 -25 1662 1 2248
10 2315 35 23 9 25 14 20 47 -13 71 -113 359 -210 604 -197 494 -652 1530
-672 1528 -4 0 -62 -45 -128 -100z"/>
</g>
</svg>
