<?xml version="1.0" standalone="no"?>
<!DOCTYPE svg PUBLIC "-//W3C//DTD SVG 20010904//EN"
 "http://www.w3.org/TR/2001/REC-SVG-20010904/DTD/svg10.dtd">
<svg version="1.0" xmlns="http://www.w3.org/2000/svg"
 width="1098.000000pt" height="336.000000pt" viewBox="0 0 1098.000000 336.000000"
 preserveAspectRatio="xMidYMid meet">

<g transform="translate(0.000000,336.000000) scale(0.100000,-0.100000)"
fill="#292929" stroke="none">
<path d="M512 3256 c-204 -50 -375 -223 -417 -423 -22 -101 -22 -2225 0 -2326
34 -160 148 -304 297 -375 45 -22 107 -45 136 -51 75 -16 9829 -16 9904 0 155
32 308 146 381 286 69 132 67 87 67 1303 0 1216 2 1171 -67 1303 -73 140 -226
254 -381 286 -83 17 -9849 14 -9920 -3z m1828 -535 c0 -194 -170 -393 -357
-416 l-53 -7 0 44 c0 54 20 130 50 187 26 53 109 143 158 173 52 32 143 67
175 68 26 0 27 -2 27 -49z m3425 -251 l0 -275 -40 0 -40 0 -3 265 c-1 146 0
271 3 278 3 9 18 12 42 10 l38 -3 0 -275z m1375 0 l0 -280 -35 0 c-31 0 -35 3
-35 25 0 14 -3 25 -6 25 -3 0 -19 -11 -36 -25 -40 -34 -120 -35 -168 -2 -106
71 -100 270 10 345 29 20 44 23 87 20 30 -3 61 -12 71 -21 10 -9 22 -17 25
-17 4 0 7 47 7 105 l0 105 40 0 40 0 0 -280z m1938 167 l3 -108 30 25 c60 51
156 27 190 -47 15 -35 19 -66 19 -179 l0 -138 -40 0 -40 0 0 119 c0 125 -11
175 -40 191 -29 16 -66 12 -91 -9 -23 -18 -24 -27 -29 -158 l-5 -138 -40 0
-40 0 -3 265 c-1 146 0 271 3 278 3 9 18 12 42 10 l38 -3 3 -108z m-5239 67
c65 -19 125 -71 147 -129 26 -69 16 -197 -20 -259 -50 -85 -143 -126 -286
-126 -109 0 -100 -24 -100 265 0 233 1 254 18 258 42 11 192 6 241 -9z m4943
-86 l3 -43 48 -3 c46 -3 48 -4 45 -30 -3 -25 -7 -27 -50 -30 l-48 -3 0 -97 c0
-116 12 -146 58 -150 29 -3 32 -6 32 -38 l0 -34 -51 0 c-99 0 -119 33 -119
204 l0 115 -27 3 c-22 2 -29 9 -31 30 -3 23 1 27 25 30 23 2 29 9 33 37 5 34
24 49 62 50 13 1 18 -9 20 -41z m-4425 -53 c50 -21 72 -42 94 -90 45 -98 6
-225 -83 -271 -36 -18 -131 -18 -168 1 -107 55 -129 239 -38 321 59 54 127 67
195 39z m1117 -6 c52 -41 60 -71 61 -224 l0 -140 -40 0 -40 0 -5 136 c-6 154
-16 179 -74 179 -70 -1 -86 -37 -86 -194 l0 -126 -40 0 -40 0 0 174 c0 96 -3
181 -6 190 -5 13 2 16 35 16 38 0 41 -2 41 -27 l0 -26 23 20 c54 49 125 58
171 22z m673 6 c50 -21 72 -42 94 -90 36 -77 16 -188 -42 -242 -34 -31 -72
-43 -133 -43 -88 0 -157 62 -171 155 -23 160 112 278 252 220z m451 -5 c50
-31 60 -67 63 -225 l2 -140 -36 -3 c-32 -3 -37 0 -37 17 0 26 -5 26 -37 1 -18
-14 -41 -20 -78 -20 -45 0 -58 5 -84 29 -25 23 -31 37 -31 71 0 85 52 131 163
145 53 7 57 9 51 29 -3 11 -14 29 -23 40 -16 18 -43 19 -136 4 -15 -2 -21 3
-23 23 -3 22 2 28 30 36 57 19 139 15 176 -7z m1149 5 c50 -21 72 -42 94 -90
36 -77 16 -188 -42 -242 -34 -31 -72 -43 -133 -43 -88 0 -157 62 -171 155 -23
160 112 278 252 220z m518 -15 c36 -34 45 -79 45 -227 l0 -133 -39 0 -39 0 -4
141 c-3 134 -4 142 -27 160 -30 24 -72 24 -102 0 -23 -18 -24 -27 -29 -158
l-5 -138 -40 0 -40 0 -3 188 -2 187 40 0 c37 0 40 -2 40 -27 0 -24 2 -25 13
-10 39 52 145 61 192 17z m1432 10 c18 -10 39 -30 48 -44 22 -33 38 -104 30
-133 -5 -22 -9 -23 -130 -23 -137 0 -139 -1 -105 -57 24 -41 75 -56 149 -44
56 9 66 2 59 -36 -4 -23 -94 -39 -163 -29 -64 10 -120 62 -137 128 -24 94 19
204 94 241 45 23 116 21 155 -3z m-5048 -27 c5 -21 20 -84 32 -140 13 -56 26
-100 29 -98 4 2 24 65 45 140 l38 135 37 0 36 0 33 -127 c19 -71 37 -134 41
-141 4 -8 21 42 40 117 18 71 36 135 40 141 4 6 23 10 42 8 l36 -3 -57 -185
-56 -185 -38 -3 c-44 -4 -42 -7 -82 149 -15 57 -31 107 -34 112 -4 4 -22 -46
-40 -110 -43 -153 -44 -155 -88 -151 l-35 3 -54 180 c-29 99 -54 183 -54 188
0 4 18 7 40 7 37 0 40 -2 49 -37z m-2214 -268 c85 -22 164 -68 226 -131 l53
-54 -24 -17 c-196 -137 -256 -387 -143 -595 34 -62 110 -138 168 -169 55 -29
55 -31 -15 -176 -88 -184 -201 -322 -297 -365 -57 -25 -140 -26 -204 -3 -140
52 -163 57 -249 52 -66 -3 -103 -11 -164 -36 -108 -45 -171 -50 -231 -21 -172
83 -365 401 -431 710 -24 112 -24 301 -1 390 24 93 79 199 135 261 143 159
335 200 551 116 115 -46 156 -47 258 -6 155 61 254 73 368 44z m4580 -460 c28
-9 54 -21 59 -25 4 -5 -1 -37 -13 -73 l-22 -65 -50 19 c-195 74 -377 -12 -329
-155 15 -47 65 -87 159 -127 228 -98 301 -179 301 -334 0 -213 -183 -335 -456
-304 -98 11 -194 43 -194 66 0 15 30 125 35 131 2 2 14 -3 27 -11 41 -27 141
-50 215 -50 125 0 203 60 203 156 0 84 -52 139 -175 187 -190 74 -279 160
-292 283 -15 144 79 267 237 312 69 19 224 14 295 -10z m-2951 -102 c42 -129
291 -898 301 -931 7 -23 6 -23 -86 -20 l-92 3 -46 150 -46 150 -176 3 -175 2
-21 -67 c-12 -38 -34 -107 -49 -155 l-26 -88 -88 0 -88 0 74 228 c41 125 117
363 171 530 l97 302 107 0 107 0 36 -107z m3436 -88 l0 -95 95 0 95 0 0 -65 0
-65 -95 0 -95 0 0 -210 c0 -279 11 -306 121 -303 l59 1 0 -63 c0 -62 -1 -64
-30 -70 -50 -11 -153 -9 -191 4 -44 14 -82 53 -105 106 -15 34 -19 79 -22 288
l-4 247 -54 0 -54 0 0 65 0 65 55 0 55 0 0 69 0 69 78 25 c42 14 80 25 85 26
4 1 7 -42 7 -94z m731 -85 c75 -14 153 -56 200 -108 165 -178 127 -511 -71
-630 -75 -44 -121 -56 -216 -56 -68 0 -90 5 -145 31 -156 74 -239 243 -209
429 29 179 119 285 282 328 65 18 90 19 159 6z m-3200 -12 c136 -46 219 -190
219 -378 0 -233 -132 -398 -324 -403 -81 -2 -147 18 -196 60 l-40 35 0 -196 0
-196 -85 0 -85 0 0 479 c0 263 -3 506 -6 540 l-7 61 76 0 c85 0 87 -2 87 -77
l0 -46 38 40 c36 40 82 69 132 84 39 12 153 10 191 -3z m931 -21 c184 -108
234 -424 99 -621 -66 -95 -152 -139 -272 -138 -74 0 -136 22 -181 65 l-28 26
0 -194 0 -195 -90 0 -90 0 0 540 0 540 75 0 75 0 0 -60 c0 -33 1 -60 3 -60 2
0 26 22 54 49 67 64 115 81 224 78 72 -3 93 -7 131 -30z m3128 -47 l0 -80 -53
0 c-74 0 -116 -25 -149 -90 l-28 -52 0 -240 0 -239 -87 3 -88 3 -3 383 -2 382
74 0 75 0 3 -71 3 -71 35 53 c43 65 102 99 172 99 l48 0 0 -80z m599 45 c106
-58 153 -151 155 -305 l1 -95 -254 -3 -254 -2 6 -45 c7 -66 48 -122 110 -151
42 -19 68 -24 137 -24 47 0 109 7 137 14 58 16 58 16 68 -34 3 -19 9 -43 11
-52 10 -36 -205 -74 -325 -57 -166 23 -275 134 -302 310 -33 214 73 412 251
470 14 5 66 7 115 6 78 -2 97 -7 144 -32z"/>
<path d="M6917 2499 c-28 -16 -47 -64 -47 -117 0 -124 120 -174 173 -72 25 49
18 142 -14 176 -24 26 -79 32 -112 13z"/>
<path d="M3660 2455 l0 -195 58 0 c125 0 195 73 195 204 0 126 -62 186 -190
186 l-63 0 0 -195z"/>
<path d="M4242 2504 c-32 -22 -52 -67 -52 -118 0 -82 36 -136 91 -136 67 0 99
45 99 141 0 56 -3 64 -34 95 -37 37 -69 43 -104 18z"/>
<path d="M6018 2491 c-28 -25 -32 -35 -36 -93 -6 -98 26 -148 95 -148 95 0
128 185 45 250 -34 28 -66 25 -104 -9z"/>
<path d="M6483 2370 c-41 -17 -56 -75 -27 -104 44 -45 124 2 124 74 0 40 0 40
-37 39 -21 0 -48 -4 -60 -9z"/>
<path d="M7618 2491 c-28 -25 -32 -35 -36 -93 -6 -98 26 -148 95 -148 95 0
128 185 45 250 -34 28 -66 25 -104 -9z"/>
<path d="M9567 2509 c-17 -10 -47 -59 -47 -79 0 -7 29 -10 88 -8 86 3 87 3 84
28 -6 55 -75 88 -125 59z"/>
<path d="M3910 1648 c0 -3 -29 -103 -65 -223 -36 -119 -65 -221 -65 -226 0
-11 267 -12 273 -1 4 8 -127 440 -137 449 -3 4 -6 4 -6 1z"/>
<path d="M8106 1396 c-93 -34 -146 -130 -146 -266 0 -96 25 -172 72 -217 46
-43 70 -53 125 -53 142 0 233 171 193 361 -29 133 -139 213 -244 175z"/>
<path d="M4815 1386 c-84 -31 -125 -117 -125 -260 0 -129 32 -206 100 -241 36
-19 120 -19 164 -1 151 63 172 380 30 478 -48 35 -114 44 -169 24z"/>
<path d="M5709 1390 c-48 -14 -78 -41 -104 -93 -23 -46 -25 -62 -25 -171 0
-101 3 -126 21 -163 28 -57 69 -86 135 -91 71 -6 97 2 144 44 73 67 101 209
65 332 -33 109 -137 172 -236 142z"/>
<path d="M9460 1404 c-19 -8 -43 -23 -53 -32 -27 -24 -67 -106 -67 -137 l0
-25 170 0 c195 0 191 -2 166 82 -30 105 -122 153 -216 112z"/>
</g>
</svg>
