<?xml version="1.0" standalone="no"?>
<!DOCTYPE svg PUBLIC "-//W3C//DTD SVG 20010904//EN"
 "http://www.w3.org/TR/2001/REC-SVG-20010904/DTD/svg10.dtd">
<svg version="1.0" xmlns="http://www.w3.org/2000/svg"
 width="1099.000000pt" height="338.000000pt" viewBox="0 0 1099.000000 338.000000"
 preserveAspectRatio="xMidYMid meet">

<g transform="translate(0.000000,338.000000) scale(0.100000,-0.100000)"
fill="#292929" stroke="none">
<path d="M532 3266 c-204 -50 -375 -223 -417 -423 -22 -101 -22 -2225 0 -2326
34 -160 148 -304 297 -375 45 -22 107 -45 136 -51 75 -16 9829 -16 9904 0 155
32 308 146 381 286 69 132 67 87 67 1303 0 1216 2 1171 -67 1303 -73 140 -226
254 -381 286 -83 17 -9849 14 -9920 -3z m2780 -427 c21 -5 50 -21 65 -34 27
-23 27 -24 9 -44 l-18 -20 -28 20 c-88 65 -212 31 -264 -73 -33 -65 -33 -101
0 -166 70 -141 283 -136 324 6 l9 32 -85 0 -84 0 0 30 0 30 116 0 117 0 -6
-55 c-12 -116 -89 -192 -206 -202 -103 -10 -197 41 -243 131 -30 58 -30 165 0
223 25 48 85 102 133 119 43 16 113 17 161 3z m2080 -22 c109 -63 150 -209 93
-324 -92 -184 -370 -170 -445 22 -7 17 -12 57 -12 90 -1 104 50 181 147 227
57 27 158 20 217 -15z m-1572 -7 l0 -30 -110 0 -111 0 3 -72 3 -73 98 -3 c95
-3 97 -3 97 -27 0 -24 -2 -24 -97 -27 l-98 -3 -3 -72 -3 -73 111 0 110 0 0
-30 0 -30 -140 0 -140 0 0 228 c0 126 3 232 7 235 3 4 66 7 140 7 l133 0 0
-30z m378 3 c-3 -27 -5 -28 -70 -31 l-68 -3 0 -204 0 -205 -30 0 -30 0 0 205
0 204 -62 3 c-60 3 -63 4 -66 31 l-3 27 166 0 166 0 -3 -27z m262 -208 l0
-235 -30 0 -30 0 0 235 0 235 30 0 30 0 0 -235z m390 205 l0 -30 -65 0 -65 0
0 -205 0 -205 -30 0 -30 0 0 205 0 205 -65 0 -65 0 0 30 0 30 160 0 160 0 0
-30z m924 -155 l111 -180 3 183 2 182 30 0 30 0 0 -235 0 -235 -34 0 c-33 0
-36 4 -152 192 l-119 193 -3 -193 -2 -192 -30 0 -30 0 0 228 c0 126 3 232 7
236 4 4 23 6 42 4 33 -3 39 -10 145 -183z m-4629 -458 c164 -82 1296 -705
1318 -725 33 -31 35 -63 5 -96 -13 -13 -102 -67 -198 -120 l-175 -96 -130 130
-130 130 -395 -395 c-217 -217 -400 -395 -407 -395 -6 0 -19 10 -27 22 -14 20
-16 109 -16 763 0 791 -1 777 50 802 27 14 45 10 105 -20z m2490 -191 c66 -17
151 -59 202 -100 l42 -33 -53 -52 -53 -52 -52 35 c-128 87 -301 88 -433 4 -63
-40 -105 -89 -142 -168 -29 -60 -31 -73 -31 -170 1 -94 3 -111 28 -162 41 -84
107 -152 185 -190 64 -32 72 -33 182 -33 106 0 120 2 172 28 88 43 152 126
173 224 l6 33 -178 2 -178 3 -3 73 -3 72 254 0 254 0 6 -55 c15 -151 -39 -301
-147 -403 -96 -91 -214 -135 -361 -135 -158 0 -283 52 -397 164 -185 181 -214
471 -70 681 43 62 144 154 205 185 116 59 278 80 392 49z m2963 -543 l-3 -518
-75 0 -75 0 -3 518 -2 517 80 0 80 0 -2 -517z m1628 479 c64 -29 126 -92 156
-157 34 -77 32 -191 -5 -267 -64 -130 -165 -178 -378 -178 l-129 0 0 -200 0
-200 -75 0 -75 0 0 516 0 515 228 -3 c212 -3 230 -5 278 -26z m474 -487 l0
-515 -80 0 -80 0 0 515 0 515 80 0 80 0 0 -515z m615 186 c67 -33 112 -80 143
-148 14 -32 17 -78 20 -296 l3 -257 -80 0 -81 0 0 47 0 47 -37 -38 c-50 -51
-105 -76 -173 -76 -115 0 -208 51 -252 139 -72 142 -2 290 160 337 71 21 202
21 261 1 l43 -15 -6 29 c-9 44 -35 78 -79 100 -76 39 -196 20 -234 -37 l-15
-23 -64 32 c-35 17 -64 36 -64 42 0 23 72 94 116 116 69 33 100 39 192 35 69
-3 94 -9 147 -35z m501 -231 c54 -126 101 -230 104 -230 3 0 46 103 95 228
l91 227 92 3 c51 1 92 1 92 -2 0 -2 -97 -227 -216 -498 -119 -271 -218 -499
-221 -505 -4 -9 -32 -13 -94 -13 l-88 0 80 166 c43 91 79 173 79 181 0 9 -63
158 -141 332 -77 174 -143 322 -146 329 -4 9 17 12 84 12 l89 0 100 -230z
m-5233 192 c65 -29 141 -104 174 -171 24 -49 28 -68 28 -151 0 -88 -3 -101
-33 -162 -86 -176 -303 -244 -484 -152 -184 93 -244 335 -126 510 42 61 89 98
164 130 51 21 71 24 144 21 58 -3 100 -11 133 -25z m782 -6 c126 -57 198 -174
199 -321 0 -104 -33 -182 -108 -253 -170 -161 -461 -112 -562 95 -39 79 -45
203 -14 285 23 62 90 144 146 179 94 57 233 64 339 15z m704 19 c23 -8 56 -24
72 -35 l29 -21 0 25 c0 26 1 26 76 26 l75 0 -3 -372 c-3 -366 -4 -374 -27
-432 -49 -123 -142 -186 -286 -194 -99 -5 -177 21 -242 81 -47 43 -87 101 -81
118 2 6 31 22 63 35 55 23 61 24 70 8 42 -71 97 -104 172 -104 112 1 172 61
181 183 l5 72 -24 -22 c-67 -62 -194 -75 -292 -30 -217 99 -278 360 -129 555
75 99 229 147 341 107z m1076 -13 c33 -16 77 -47 97 -70 37 -41 88 -130 88
-154 0 -7 -99 -54 -230 -108 -127 -52 -230 -100 -230 -106 0 -19 77 -83 107
-90 16 -3 34 -7 41 -10 34 -10 117 20 156 56 l40 38 59 -40 59 -40 -43 -45
c-137 -139 -357 -143 -497 -9 -191 182 -113 520 138 597 14 4 54 8 90 8 52 1
77 -5 125 -27z"/>
<path d="M5217 2785 c-127 -45 -170 -212 -79 -308 39 -41 74 -57 129 -57 94 0
169 66 180 158 11 96 -47 187 -134 211 -47 13 -49 13 -96 -4z"/>
<path d="M7870 1655 l0 -165 113 0 c133 0 172 9 215 51 61 60 65 153 8 217
-46 53 -79 62 -216 62 l-120 0 0 -165z"/>
<path d="M9063 1261 c-43 -20 -73 -62 -73 -101 0 -33 50 -77 97 -84 23 -4 59
-2 82 4 65 17 151 105 151 153 0 44 -179 63 -257 28z"/>
<path d="M4355 1471 c-74 -34 -115 -102 -115 -191 0 -122 84 -213 196 -213
164 0 256 198 159 344 -47 72 -156 99 -240 60z"/>
<path d="M5140 1479 c-48 -20 -100 -81 -116 -137 -38 -128 35 -251 163 -275
52 -10 126 18 166 62 45 50 61 99 54 172 -6 69 -28 110 -79 152 -30 24 -48 30
-100 33 -35 2 -74 -1 -88 -7z"/>
<path d="M5920 1474 c-49 -21 -70 -42 -96 -99 -52 -109 -11 -240 90 -292 64
-33 162 -16 213 39 67 71 72 213 11 301 -42 60 -143 84 -218 51z"/>
<path d="M6992 1490 c-79 -18 -159 -110 -150 -174 l3 -25 145 60 c80 34 149
65 154 69 18 18 -38 61 -94 72 -14 3 -40 2 -58 -2z"/>
</g>
</svg>
