<?xml version="1.0" standalone="no"?>
<!DOCTYPE svg PUBLIC "-//W3C//DTD SVG 20010904//EN"
 "http://www.w3.org/TR/2001/REC-SVG-20010904/DTD/svg10.dtd">
<svg version="1.0" xmlns="http://www.w3.org/2000/svg"
 width="333.000000pt" height="682.000000pt" viewBox="0 0 333.000000 682.000000"
 preserveAspectRatio="xMidYMid meet">

<g transform="translate(0.000000,682.000000) scale(0.100000,-0.100000)"
fill="#444444" stroke="none">
<path d="M475 6769 c-244 -27 -385 -160 -415 -389 -8 -60 -11 -936 -10 -2990
0 -2485 3 -2915 15 -2973 38 -182 140 -294 311 -343 51 -15 126 -18 583 -22
366 -2 527 0 534 7 8 8 -108 11 -408 11 -230 0 -415 3 -411 8 4 4 501 7 1104
8 981 1 1103 3 1152 17 68 20 76 15 13 -9 -44 -17 -98 -19 -593 -24 -309 -3
-538 -9 -528 -13 10 -5 253 -7 540 -5 566 5 563 5 678 63 59 30 135 112 166
179 56 123 54 16 54 2269 0 1540 3 2084 11 2100 9 16 9 22 0 25 -14 5 -15 32
-1 32 6 0 10 107 10 300 0 165 -3 299 -7 299 -22 -4 -25 3 -7 15 15 12 17 17
7 27 -10 10 -13 124 -13 499 0 302 -4 509 -11 546 -15 83 -72 195 -124 243
-55 50 -129 88 -214 109 -58 14 -198 16 -1211 18 -630 1 -1181 -2 -1225 -7z
m2170 -19 c4 -6 -391 -10 -1117 -12 -1029 -3 -1127 -4 -1173 -20 -27 -10 -51
-16 -53 -14 -6 7 99 38 152 46 79 12 2184 12 2191 0z m210 0 c39 -5 91 -18
115 -30 25 -11 36 -18 25 -15 -75 23 -151 35 -217 35 -45 0 -78 4 -78 10 0 12
62 12 155 0z m-1938 -162 c6 -7 13 -34 15 -60 6 -54 36 -101 81 -126 29 -16
82 -17 642 -17 l610 0 37 23 c41 26 78 91 78 139 0 53 8 55 262 51 220 -3 236
-5 286 -27 64 -29 116 -87 140 -156 16 -47 17 -232 20 -2925 2 -1924 -1 -2909
-8 -2979 -11 -115 -33 -166 -92 -216 -76 -64 19 -60 -1338 -60 l-1235 0 -41
22 c-81 43 -126 108 -144 205 -7 35 -9 1094 -8 2988 l3 2935 23 50 c38 83 89
126 173 149 72 20 482 22 496 4z m2262 -218 c15 -89 15 -5819 1 -5908 -11 -63
-39 -147 -47 -139 -2 3 4 29 14 58 17 52 18 187 18 3034 0 3158 2 2975 -39
3100 -3 11 5 -2 18 -30 14 -27 30 -79 35 -115z m-3017 80 c-16 -51 -17 -285
-20 -2999 -2 -3040 -3 -3007 33 -3116 6 -16 5 -17 -4 -5 -6 8 -19 40 -28 70
-17 52 -18 214 -18 3015 0 2429 2 2967 13 3000 35 104 53 131 24 35z m-66 -47
c-3 -16 -8 -66 -11 -113 -3 -46 -8 -87 -12 -90 -8 -7 3 191 12 213 11 26 17
20 11 -10z m3143 -121 c0 -46 -3 -81 -7 -78 -5 3 -9 54 -9 113 -1 71 1 98 7
78 4 -16 8 -67 9 -113z m1 -2869 c0 -1505 -3 -2734 -6 -2731 -7 7 -13 5367 -6
5426 2 23 6 42 8 42 2 0 4 -1231 4 -2737z m-3160 -238 l-5 -2500 -5 2110 c-5
2128 0 3589 10 3125 3 -129 3 -1360 0 -2735z m4 -2650 c4 -64 2 -93 -3 -80 -9
19 -15 193 -7 184 2 -2 6 -49 10 -104z m3147 -77 c-7 -25 -9 -7 -6 72 2 58 5
107 6 110 9 16 8 -155 0 -182z m-2831 -348 c19 -5 72 -11 118 -13 97 -5 122
-17 36 -17 -79 0 -181 17 -213 36 l-26 15 25 -6 c14 -4 41 -10 60 -15z"/>
<path d="M1847 5763 c-2 -5 -1 -19 4 -33 4 -14 7 -19 8 -12 1 10 10 12 31 7
34 -7 39 4 12 28 -19 18 -48 22 -55 10z"/>
<path d="M1863 5683 c-15 -6 -17 -32 -3 -34 43 -6 50 -15 38 -52 -6 -17 -15
-36 -19 -41 -13 -14 -11 -94 2 -102 6 -3 8 -17 5 -30 -8 -32 18 -33 38 -1 35
56 39 245 4 239 -8 -1 -21 5 -28 13 -13 16 -17 17 -37 8z"/>
<path d="M1650 5664 c0 -9 5 -14 12 -12 18 6 21 28 4 28 -9 0 -16 -7 -16 -16z"/>
<path d="M1702 5654 c9 -9 21 -13 27 -9 16 10 3 25 -22 25 -20 0 -20 -1 -5
-16z"/>
<path d="M745 5600 c-3 -5 -1 -10 4 -10 6 0 11 5 11 10 0 6 -2 10 -4 10 -3 0
-8 -4 -11 -10z"/>
<path d="M1651 5578 c-1 -23 3 -28 22 -28 19 1 20 2 6 13 -9 7 -18 19 -22 27
-3 9 -6 4 -6 -12z"/>
<path d="M906 5493 c-11 -11 -6 -23 9 -23 8 0 15 4 15 9 0 13 -16 22 -24 14z"/>
<path d="M1727 5470 c-20 -62 -9 -87 24 -54 18 19 18 20 -1 44 -14 19 -20 21
-23 10z"/>
<path d="M1536 5228 c3 -13 12 -34 19 -47 l12 -24 19 28 c18 27 18 28 -5 46
-33 27 -54 25 -45 -3z"/>
<path d="M1490 5230 c0 -5 5 -10 10 -10 6 0 10 5 10 10 0 6 -4 10 -10 10 -5 0
-10 -4 -10 -10z"/>
<path d="M445 5170 c-3 -5 3 -10 14 -10 12 0 21 5 21 10 0 6 -6 10 -14 10 -8
0 -18 -4 -21 -10z"/>
<path d="M2640 5140 c-91 -4 -267 -6 -392 -3 l-228 5 4 -43 c3 -27 -1 -50 -11
-65 -8 -13 -13 -30 -10 -38 3 -8 -1 -20 -9 -26 -20 -17 -18 -25 10 -44 33 -21
50 -24 51 -7 0 8 6 16 14 19 10 3 12 0 8 -12 -4 -9 -1 -16 6 -16 6 0 1 -7 -12
-16 -36 -26 -12 -36 97 -40 88 -3 102 -2 125 16 24 19 57 18 57 -1 0 -5 7 -9
15 -9 8 0 15 9 15 21 0 11 4 18 10 14 5 -3 7 -12 4 -19 -7 -19 53 -26 91 -11
16 7 52 16 78 20 35 5 47 11 43 21 -8 20 17 17 46 -6 24 -18 38 -18 38 2 0 4
-7 8 -15 8 -24 0 -17 27 13 49 16 11 51 25 78 32 72 17 84 26 84 58 0 31 14
41 61 41 24 0 29 4 29 25 0 22 -4 25 -39 25 -21 0 -51 2 -67 4 -16 2 -103 0
-194 -4z m-380 -51 c0 -4 -6 -9 -12 -12 -13 -5 78 0 139 8 34 4 42 -14 13 -27
-29 -13 -154 -8 -184 7 -20 11 -32 12 -41 5 -16 -13 -137 -11 -132 3 1 5 21
12 42 14 22 2 41 6 43 8 8 8 132 2 132 -6z m-145 -59 c4 -6 -8 -10 -30 -10
-22 0 -34 4 -30 10 3 6 17 10 30 10 13 0 27 -4 30 -10z m129 -36 c9 -3 16 -15
16 -26 0 -18 -5 -20 -31 -14 -27 5 -30 4 -24 -14 8 -24 -19 -54 -40 -46 -17 6
-20 26 -5 26 6 0 10 9 10 20 0 10 10 28 22 40 24 22 28 23 52 14z m102 -44 c8
0 14 -5 14 -11 0 -5 -5 -7 -10 -4 -6 4 -16 2 -23 -3 -9 -8 -19 -4 -35 13 -21
22 -22 24 -5 33 13 8 21 6 31 -9 7 -10 20 -19 28 -19z"/>
<path d="M635 5100 c-3 -5 1 -10 9 -10 9 0 16 5 16 10 0 6 -4 10 -9 10 -6 0
-13 -4 -16 -10z"/>
<path d="M1454 5099 c-3 -5 1 -9 10 -9 8 0 22 -3 32 -7 11 -4 15 -3 11 4 -9
15 -46 23 -53 12z"/>
<path d="M915 5090 c-3 -5 -1 -10 4 -10 6 0 11 5 11 10 0 6 -2 10 -4 10 -3 0
-8 -4 -11 -10z"/>
<path d="M1375 5090 c-3 -5 -1 -10 4 -10 6 0 11 5 11 10 0 6 -2 10 -4 10 -3 0
-8 -4 -11 -10z"/>
<path d="M898 5063 c7 -3 16 -2 19 1 4 3 -2 6 -13 5 -11 0 -14 -3 -6 -6z"/>
<path d="M962 5062 c-18 -3 -21 -8 -16 -28 6 -23 5 -24 -57 -26 -65 -2 -96 -4
-114 -8 -5 -2 -26 -4 -45 -6 -19 -1 -55 -5 -80 -8 -49 -6 -196 -16 -247 -17
-31 0 -33 -2 -33 -37 0 -42 7 -55 36 -70 23 -12 1159 -10 1171 2 16 15 -25 27
-84 23 -35 -1 -63 1 -63 5 0 8 7 10 74 14 52 3 61 15 42 55 -8 19 -19 49 -23
68 -9 35 -33 55 -33 27 0 -11 -11 -15 -49 -14 -28 1 -56 -4 -65 -11 -10 -8
-16 -9 -21 -1 -7 12 -152 9 -172 -3 -17 -11 -106 -12 -122 -3 -6 4 -9 16 -6
26 5 15 0 17 -32 16 -21 0 -48 -2 -61 -4z m48 -37 c0 -8 -6 -15 -14 -15 -17 0
-28 14 -19 24 12 12 33 6 33 -9z m-509 -108 c-1 -4 -3 -7 -6 -7 -70 0 -71 0
-52 15 18 13 59 8 58 -8z"/>
<path d="M2830 4946 c0 -21 40 -46 72 -46 38 0 35 15 -4 30 -18 6 -41 16 -50
21 -13 7 -18 5 -18 -5z"/>
<path d="M1580 4934 c0 -8 5 -12 10 -9 6 4 8 11 5 16 -9 14 -15 11 -15 -7z"/>
<path d="M409 4678 c-50 -17 -50 -20 -47 -519 3 -442 4 -468 22 -488 l19 -21
1076 0 c592 0 1151 -1 1242 -1 183 -2 202 3 218 53 13 41 13 867 0 919 -5 20
-16 42 -24 49 -12 10 -276 13 -1248 15 -708 1 -1243 -2 -1258 -7z m1411 -112
c0 -3 -4 -8 -10 -11 -5 -3 -10 -1 -10 4 0 6 5 11 10 11 6 0 10 -2 10 -4z m-24
-300 c10 -8 16 -18 11 -22 -8 -8 -57 15 -57 28 0 13 24 9 46 -6z m-312 -12
c31 -12 18 -34 -20 -34 -43 0 -41 -11 6 -42 19 -13 36 -34 38 -47 7 -49 -59
-79 -103 -48 -26 19 -10 38 25 30 43 -8 40 19 -5 47 -71 44 -21 125 59 94z
m84 -87 c2 -72 0 -89 -14 -94 -29 -11 -36 11 -28 101 6 72 10 86 23 84 13 -3
16 -20 19 -91z m142 63 c0 -5 -10 -10 -22 -10 -19 0 -20 2 -8 10 19 13 30 13
30 0z m-45 -26 c18 -18 31 -23 43 -18 31 13 80 16 100 5 10 -6 22 -7 26 -3 4
3 26 8 50 9 63 4 90 -33 73 -100 -6 -20 -16 -29 -37 -34 -23 -4 -30 -11 -30
-29 0 -17 -8 -28 -26 -35 -34 -12 -39 -6 -35 37 l3 34 -50 0 c-42 0 -52 4 -66
25 -20 30 -36 33 -29 5 4 -15 -2 -22 -22 -30 -36 -14 -42 -13 -65 10 -20 20
-27 74 -12 96 4 6 17 16 30 23 12 7 20 16 17 22 -11 17 4 9 30 -17z m75 16 c0
-5 -4 -10 -10 -10 -5 0 -10 5 -10 10 0 6 5 10 10 10 6 0 10 -4 10 -10z m-563
-264 c-2 -6 -13 -12 -25 -12 -16 -1 -22 4 -22 21 0 12 3 25 7 28 9 9 44 -24
40 -37z m747 -42 c3 -8 2 -12 -4 -9 -6 3 -10 10 -10 16 0 14 7 11 14 -7z
m-1024 -28 c0 -3 -4 -8 -10 -11 -5 -3 -10 -1 -10 4 0 6 5 11 10 11 6 0 10 -2
10 -4z"/>
<path d="M1887 4153 c-13 -12 -7 -43 7 -43 19 0 28 14 20 34 -7 17 -16 20 -27
9z"/>
<path d="M1768 4113 c7 -3 16 -2 19 1 4 3 -2 6 -13 5 -11 0 -14 -3 -6 -6z"/>
<path d="M1816 4105 c4 -8 8 -15 10 -15 2 0 4 7 4 15 0 8 -4 15 -10 15 -5 0
-7 -7 -4 -15z"/>
<path d="M938 3059 c-21 -11 -38 -24 -38 -30 0 -12 29 -69 35 -69 3 0 18 27
35 60 33 66 28 71 -32 39z"/>
<path d="M670 2954 c-80 -31 -176 -67 -215 -81 -38 -14 -76 -31 -83 -38 -18
-16 -6 -336 14 -363 11 -16 52 -17 512 -22 274 -3 506 -4 515 -2 21 4 21 24 1
65 -22 45 -366 378 -379 366 -19 -19 -34 -8 -43 34 l-9 42 -17 -42 c-10 -24
-22 -43 -27 -43 -5 0 -17 16 -26 35 -19 40 -33 45 -33 13 0 -33 -15 -52 -35
-44 -12 4 -15 13 -12 29 4 12 9 41 13 65 9 55 6 55 -176 -14z"/>
<path d="M1160 2119 c0 -21 -19 -29 -64 -24 -36 3 -49 -8 -21 -19 17 -6 21
-36 5 -36 -6 0 -13 7 -16 15 -4 8 -12 15 -20 15 -16 0 -19 -36 -4 -45 6 -3 10
-15 10 -27 0 -17 -2 -18 -15 -8 -12 10 -15 9 -15 -4 0 -10 5 -26 10 -37 10
-18 23 -19 175 -19 l164 0 15 32 c9 17 16 49 16 70 0 35 -2 39 -20 33 -14 -4
-20 -2 -20 8 0 8 -9 22 -21 33 -20 18 -21 18 -30 1 -6 -10 -15 -15 -20 -11 -5
3 -16 1 -24 -6 -11 -9 -17 -6 -31 15 -15 23 -19 25 -32 11 -14 -14 -17 -13
-28 2 -12 15 -13 15 -14 1z"/>
<path d="M1412 1957 c-12 -7 -19 -16 -16 -20 13 -13 33 -7 44 13 12 23 5 25
-28 7z"/>
</g>
</svg>
